<svg xmlns="http://www.w3.org/2000/svg" width="132.888" height="99.744" viewBox="0 0 132.888 99.744">
  <path id="ポートフォリアイコン_GitHub_" data-name="ポートフォリアイコン（GitHub）" d="M66.436,5.329C29.75,5.329,0,28.223,0,56.465c0,22.588,19.036,41.752,45.448,48.519,3.322.471,4.535-1.108,4.535-2.464,0-1.216-.058-4.431-.091-8.7-18.48,3.088-22.383-6.857-22.383-6.857-3.015-5.908-7.375-7.481-7.375-7.481-6.038-3.171.448-3.107.448-3.107a14.109,14.109,0,0,1,10.174,5.271c5.93,7.812,15.556,5.558,19.344,4.246a10.225,10.225,0,0,1,4.219-6.838c-14.751-1.292-30.265-5.679-30.265-25.269,0-5.583,2.591-10.148,6.844-13.726-.689-1.292-2.965-6.494.648-13.529,0,0,5.581-1.375,18.272,5.24a81.213,81.213,0,0,1,33.272.006c12.683-6.615,18.256-5.24,18.256-5.24,3.621,7.041,1.345,12.236.664,13.529,4.261,3.578,6.827,8.143,6.827,13.726,0,19.641-15.531,23.964-30.332,25.23,2.384,1.579,4.51,4.7,4.51,9.467,0,6.838-.083,12.351-.083,14.025,0,1.369,1.2,2.96,4.568,2.457,26.37-6.774,45.39-25.931,45.39-48.513C132.888,28.223,103.138,5.329,66.436,5.329Z" transform="translate(0 -5.329)" fill="#5c6bc0"/>
</svg>
